<svg width="309" height="91" viewBox="0 0 309 91" fill="none" xmlns="http://www.w3.org/2000/svg">
<path d="M26.2 26C32.1 26.3 34.5 29.1 35.3 35.4C35.9 40.4 36.2 46.3 36.2 53.1C36.2 55.2 36.2 56.5 36.1 57.1C35.3 64.2 29.4 65.9 17.9 65.9C15.2 65.9 12.7 65.8 10.6 65.7C4.7 65.2 2.9 63.2 2.1 56.9C1.3 50.9 0.9 45 0.9 39.1V36.4C0.9 30.9 3.2 28.5 9.1 27.3C13.4 26.4 18.6 26 24.8 26H26.2ZM9.4 40.1C9.4 45.7 9.7 50.3 10.4 53.8C10.9 56.5 11.4 57.2 13.4 57.5C14.9 57.7 17.1 57.8 20 57.8C25.2 57.8 27.1 56.9 27.1 52.9C27.1 47.3 26.8 42.5 26.2 38.5C25.7 35.3 25 34.3 22.5 34.3C18.4 34.3 15.1 34.6 12.6 35.1C10.2 35.6 9.4 37.2 9.4 40.1ZM49.8 24.8C49.8 22.5 51.3 21.3 53.7 21.3C56.4 21.3 58.5 22.9 59.4 25.6C60.6 29 61.6 33.8 62.5 39.9L67.6 39.8C71.8 39.8 75.2 39.9 77.8 40.2C80.2 40.3 81.6 42.2 81.6 44.7C81.6 47.1 80.2 49 78.2 49H74.5L67 48.8H63.3C63.5 52.2 63.6 55.6 63.6 59.1C63.6 61.6 61.7 63.5 59.2 63.5C56.7 63.5 54.8 62 54.7 59.6L54.5 56.3C53.6 41.5 53 35.8 50.2 27C49.9 26.2 49.8 25.5 49.8 24.8Z" fill="#3DC8EF"/>
<path d="M112.463 90.8C105.663 90.8 102.963 88.9 102.463 82C102.163 78.7 102.063 76 102.063 73.7L102.263 68.3C102.363 66.3 102.663 64.8 102.963 63.8C103.563 61.8 105.063 60.8 108.963 60.4C111.563 60.1 114.763 60 118.563 60C124.063 60 127.663 60.2 129.463 60.6C130.763 60.9 131.663 61.6 132.263 62.6C133.563 64.9 133.663 68.8 133.663 74.9C133.663 80.4 133.363 84.1 132.663 86C132.163 87.4 131.363 88.4 130.263 89.1C127.763 90.5 123.563 90.7 117.163 90.7L112.463 90.8ZM87.3633 43.5C87.3633 41.4 89.0633 39.4 91.0633 39.4L92.1633 39.6C97.2633 40.8 103.463 41.4 110.563 41.4C121.363 41.4 131.763 39.4 144.063 35.4C145.063 35.1 145.863 34.9 146.563 34.9C148.563 34.9 150.163 36.5 150.163 38.5C150.163 41 147.463 43.1 142.163 44.7C132.463 47.6 117.463 49.5 109.763 49.5C102.463 49.5 96.2633 48.8 91.2633 47.3C88.5633 46.4 87.3633 45.5 87.3633 43.5ZM97.4633 13.6C97.4633 6.09999 103.763 0.199993 111.363 0.199993C117.963 0.199993 123.963 5.4 123.963 12.7C123.963 20.5 117.563 26.5 110.263 26.5C103.663 26.5 97.4633 21 97.4633 13.6ZM105.863 13.8C105.863 16.3 107.463 18.6 109.763 18.6C112.963 18.6 115.863 15.9 115.863 12.8C115.863 10 114.163 8.1 111.463 8.1C108.563 8.1 105.863 11 105.863 13.8ZM110.463 76.4C110.463 80.8 111.463 82.6 114.763 82.6H120.563C124.263 82.6 125.163 81.4 125.163 77.5V73.3C125.163 71.8 124.963 70.6 124.663 69.8C124.363 69.1 123.563 68.5 122.463 68.2C121.363 67.9 119.663 67.8 117.463 67.8C115.063 67.8 113.463 67.9 112.663 68.2C111.763 68.5 111.263 69.3 110.963 70.5C110.663 71.7 110.463 73.7 110.463 76.4Z" fill="#FF7B6F"/>
<path d="M173.891 63.6C166.391 63.6 160.291 57.6 160.291 50.7C160.291 41.5 166.491 34.6 175.391 34.6C182.991 34.6 189.491 40.6 189.491 47.5C189.491 56.6 183.191 63.6 173.891 63.6ZM169.491 49.5C169.491 52.2 171.191 54.8 173.591 54.8C177.291 54.8 180.291 52 180.291 48.3C180.291 45.5 177.891 43.5 174.691 43.5C171.491 43.5 169.491 46 169.491 49.5ZM191.691 32.2C191.691 29.5 193.791 28 196.591 28H198.291L201.591 28.3C205.191 28.3 207.791 28.2 209.291 27.9L208.191 23.8C207.691 22.3 207.491 21.2 207.491 20.5C207.491 18.1 209.491 16.2 211.891 16.2C214.291 16.2 216.291 17.9 216.991 20.3C220.091 32.8 221.591 46.1 221.591 60.1C221.591 62.5 219.791 64.8 217.391 64.8C215.891 64.8 214.891 64.5 214.291 63.8C213.691 63.2 213.391 62.6 213.291 62.1C213.191 61.6 212.991 60.1 212.891 57.7C210.991 58.1 209.091 58.3 207.091 58.3C201.191 58.3 197.791 57 197.791 53.3C197.791 50.4 199.591 48.8 202.491 48.8L205.091 49C205.991 49.2 206.891 49.3 207.691 49.3C209.391 49.3 210.891 49.1 212.391 48.7C211.991 44.1 211.491 40 210.991 36.4C207.591 37 204.091 37.3 200.491 37.3C194.491 37.3 191.691 36.3 191.691 32.2ZM227.191 59.1C228.491 53.8 229.091 48.8 229.091 43.9C229.091 38.8 228.491 33.5 227.191 28.2L226.991 26.4C226.991 23.9 228.591 22.1 230.991 22.1C233.391 22.1 235.491 23.8 236.291 26.2C237.191 29.2 237.691 34.5 237.691 42.1C237.691 49.8 236.991 56 235.691 60.8C234.991 63.2 233.491 64.5 231.391 64.5C228.891 64.5 226.991 63.1 226.991 60.4L227.191 59.1Z" fill="#FFD340"/>
<path d="M272.355 69.5C272.355 66.1 271.955 63.2 271.255 60.8L271.055 60.2C270.955 60.1 270.955 59.8 270.955 59.5C270.955 57.1 273.555 55.5 276.455 55.5C279.655 55.5 281.655 59.6 281.755 62.1L281.955 70.9C290.055 69.8 296.955 68.5 302.755 66.9L304.155 66.7C306.555 66.7 308.555 68.8 308.555 71.2C308.555 73.1 307.455 74.4 305.355 75.2C294.655 78.9 276.855 80.9 260.355 80.9C255.955 80.9 252.555 80.5 250.055 79.7C247.555 78.9 246.355 77.4 246.355 75.2C246.355 72.8 248.255 70.8 250.655 70.8L251.455 70.9C255.655 71.6 260.355 71.9 265.455 71.9L272.255 71.7V71L272.355 69.5ZM258.155 19.5C258.055 16.7 259.955 15.2 262.855 15.2C266.455 15.2 267.255 18.2 267.255 24.7V26.7L284.255 26.5C284.255 25.2 284.155 23.8 283.955 22.4L283.755 18.5C283.755 15.9 285.055 14.6 287.755 14.6C290.155 14.6 292.055 15.7 292.455 17.7C292.855 20 293.055 23 293.055 26.7V31.3C293.055 35.4 292.955 38.5 292.755 40.6C292.455 44.3 291.655 47 290.355 48.7C287.855 52 284.655 52.6 276.355 52.6C272.455 52.6 269.255 52.5 266.855 52.2C261.255 51.5 259.055 47.2 258.755 39.7L258.155 19.5ZM267.355 34.6C267.455 35.1 267.455 36.2 267.455 37.9C267.455 40.2 267.555 41.8 267.655 42.7C267.755 43.5 268.455 44.1 269.655 44.4C270.855 44.7 272.655 44.9 275.155 44.9L278.455 45C282.355 45 284.155 44 284.155 40.5V34.3L267.355 34.6Z" fill="#666666"/>
</svg>
