<svg width="165" height="161" viewBox="0 0 165 161" fill="none" xmlns="http://www.w3.org/2000/svg">
<path d="M114.309 59.1284C109.994 56.4324 106.564 52.85 103.983 48.3812C101.402 43.9493 100.111 39.4066 100.111 34.827C100.111 28.0315 101.586 21.9746 104.573 16.6933C107.56 11.412 111.653 7.31257 116.853 4.39493C122.053 1.47729 127.843 0 134.259 0C142.594 0 149.49 2.58525 154.984 7.71883C160.479 12.8524 163.208 19.5371 163.208 27.7361C163.208 33.9776 161.622 39.8498 158.414 45.2419C155.206 50.671 151.002 55.029 145.691 58.279C140.418 61.5659 134.665 63.191 128.396 63.191C123.27 63.191 118.55 61.8245 114.235 59.1284H114.309Z" fill="#FF7B6F"/>
<path d="M18.5751 156.334C14.2604 153.638 10.8309 150.055 8.24944 145.587C5.66802 141.155 4.37732 136.612 4.37732 132.033C4.37732 125.237 5.85241 119.18 8.83947 113.899C11.8265 108.618 15.9199 104.518 21.1196 101.6C26.3193 98.6828 32.1091 97.2055 38.5257 97.2055C46.86 97.2055 53.7561 99.7908 59.2508 104.924C64.7455 110.058 67.4744 116.743 67.4744 124.942C67.4744 131.183 65.8887 137.055 62.6804 142.447C59.4721 147.876 55.268 152.234 49.9577 155.484C44.6842 158.771 38.9314 160.396 32.6622 160.396C27.5363 160.396 22.816 159.03 18.5013 156.334H18.5751Z" fill="#FFD340"/>
<path d="M63.6392 3.3239C66.7369 4.72732 68.8389 7.53417 70.019 11.7814C71.1622 16.0286 71.7522 22.5656 71.7522 31.3554C71.7522 43.8754 71.0515 52.5914 69.6871 57.5403C68.7652 60.9381 66.9582 63.4495 64.2661 65.0745C61.5741 66.6995 57.9232 67.7336 53.3873 68.2137C48.8514 68.6569 42.3241 68.9154 33.8423 68.9154C28.6057 68.9154 23.2585 68.6939 17.8744 68.2137C13.4123 67.7336 10.0933 66.8842 7.91753 65.6654C5.74177 64.4467 4.2298 62.6 3.30786 60.1995C2.38593 57.7989 1.68526 54.2164 1.24273 49.4153C0.61582 44.3186 0.320801 35.7504 0.320801 23.6735C0.320801 18.7246 0.61582 15.0314 1.24273 12.5569C2.45969 6.537 7.3275 3.13924 15.8093 2.36366C20.2714 1.88354 27.0569 1.66195 36.1656 1.66195H48.4457C55.8581 1.66195 60.9471 2.21593 63.7129 3.28697L63.6392 3.3239ZM35.1699 18.8354C29.7858 18.8354 25.9874 19.057 23.8117 19.5371C21.8203 20.165 20.5296 21.4207 19.9764 23.3781C19.4233 25.2985 19.1651 28.9179 19.1651 34.1623C19.1651 40.1822 19.2389 43.6538 19.3864 44.5771C19.6814 48.6028 22.8529 50.5971 28.8639 50.5971H43.2091C47.5238 50.5971 50.2896 49.7846 51.5434 48.1596C52.7604 46.5346 53.3873 43.0999 53.3873 37.8555C53.3873 31.2077 53.7561 26.4065 52.9079 23.7105C51.3959 18.7246 35.0961 18.8354 35.0961 18.8354H35.1699Z" fill="#3DC8EF"/>
<path d="M149.416 104.85C149.047 102.117 148.9 99.5322 148.9 97.0578C148.9 92.5521 151.186 90.3361 155.796 90.3361C157.676 90.3361 159.41 90.8532 160.922 91.8503C162.47 92.8475 163.392 94.1771 163.761 95.839C164.462 99.3845 164.831 104.186 164.831 110.206V117.297C164.831 124.498 164.646 131.663 164.314 138.754C163.946 145.143 162.434 149.871 159.705 152.936C156.976 155.78 153.767 157.59 150.043 158.439C146.318 159.252 140.639 159.695 132.969 159.695C125.888 159.695 119.435 159.104 113.682 157.922C108.74 156.851 105.2 154.561 103.135 151.016C101.07 147.47 99.9633 142.558 99.8527 136.317C99.8527 132.882 99.7789 130.297 99.6683 128.524L99.2995 120.916C98.8201 113.456 98.5989 107.251 98.5989 102.302C98.5989 99.8277 99.2995 97.9442 100.738 96.7254C102.139 95.4697 104.094 94.8788 106.564 94.8788C108.334 94.8788 109.883 95.5066 111.248 96.7254C112.612 97.9811 113.276 99.4584 113.276 101.231L113.645 108.507L114.014 113.308L149.785 112.791L149.416 104.998V104.85ZM114.714 135.172C114.714 138.016 115.194 140.195 116.116 141.746C117.074 143.297 118.697 144.331 121.057 144.922C124.487 145.624 128.654 145.993 133.632 145.993H139.828C142.667 145.993 144.88 145.18 146.466 143.518C148.051 141.857 148.9 140.379 149.047 139.087L149.563 126.862L114.493 127.379C114.604 128.561 114.677 131.146 114.677 135.172H114.714Z" fill="#666666"/>
</svg>
