<svg width="325" height="287" viewBox="0 0 325 287" fill="none" xmlns="http://www.w3.org/2000/svg">
<g clip-path="url(#clip0_1365_2532)">
<path d="M33.5217 221.002C34.96 222.553 35.8819 225.028 36.3244 228.389C36.9513 233.67 37.2832 239.912 37.2832 247.113C37.2832 249.514 37.2463 250.917 37.1726 251.36C36.7669 254.943 35.0337 257.417 32.0466 258.71C29.0596 260.003 24.3393 260.667 17.9595 260.667C15.7837 260.667 13.2023 260.594 10.2521 260.446C7.15444 260.15 4.97867 259.375 3.76172 258.119C2.54477 256.863 1.69659 254.537 1.29094 251.139C0.44276 244.787 0.0371094 238.508 0.0371094 232.304V229.46C0.0371094 226.579 0.700902 224.4 1.99161 222.96C3.28232 221.519 5.53183 220.485 8.70329 219.857C13.0548 218.934 18.5864 218.491 25.2981 218.491H26.7732C29.8709 218.639 32.1573 219.488 33.5955 221.039L33.5217 221.002ZM10.0309 247.852C10.3259 249.255 10.6578 250.216 11.0266 250.77C11.3953 251.287 12.1329 251.619 13.2023 251.767C14.8249 251.988 17.1482 252.099 20.1721 252.099C22.9748 252.099 24.9293 251.767 26.0356 251.028C27.142 250.326 27.6582 248.96 27.6582 246.892C27.6582 240.983 27.3263 235.886 26.6994 231.676C26.4044 229.903 25.9988 228.721 25.4825 228.13C24.9662 227.539 24.0443 227.244 22.7904 227.244C18.6233 227.244 15.1568 227.539 12.3173 228.093C11.0634 228.389 10.1784 228.943 9.6621 229.792C9.18269 230.642 8.92455 231.823 8.92455 233.375C8.92455 239.505 9.29332 244.343 9.99399 247.852H10.0309ZM52.7717 214.428C53.5093 213.8 54.5049 213.468 55.7957 213.468C57.197 213.468 58.4508 213.874 59.4834 214.687C60.5528 215.499 61.3273 216.607 61.8067 218.011C62.9867 221.408 64.0931 226.431 65.0887 233.153L70.4728 233.042C75.1931 233.042 78.7702 233.19 81.241 233.448C82.4949 233.522 83.4905 234.002 84.1912 234.889C84.8919 235.775 85.2607 236.883 85.2607 238.213C85.2607 239.542 84.9288 240.539 84.265 241.426C83.6012 242.312 82.7161 242.755 81.6835 242.755H77.7746L69.8459 242.534H65.9369C66.1582 246.116 66.2688 249.772 66.2688 253.429C66.2688 254.758 65.8263 255.866 64.9412 256.753C64.0562 257.639 62.9499 258.082 61.6223 258.082C60.2947 258.082 59.1884 257.713 58.3033 256.974C57.4183 256.236 56.9389 255.238 56.8651 253.946L56.6438 250.437C56.1644 242.201 55.6113 236.071 55.0581 232.082C54.5049 228.093 53.5093 223.883 52.1079 219.451C51.8129 218.676 51.7023 217.9 51.7023 217.124C51.7023 215.906 52.071 215.019 52.8086 214.354L52.7717 214.428Z" fill="#666666"/>
<path d="M92.5255 233.965C93.2999 233.079 94.2219 232.636 95.2544 232.636L96.4345 232.857C101.855 234.113 108.346 234.778 115.869 234.778C121.511 234.778 127.153 234.261 132.832 233.227C138.512 232.193 144.633 230.605 151.271 228.426C152.451 228.056 153.336 227.909 153.926 227.909C154.996 227.909 155.881 228.278 156.618 229.016C157.356 229.755 157.725 230.642 157.725 231.713C157.725 234.409 154.922 236.588 149.28 238.286C144.412 239.764 138.585 240.983 131.8 241.943C125.014 242.903 119.409 243.383 115.058 243.383C107.166 243.383 100.675 242.608 95.5126 241.056C94.0375 240.576 92.9681 240.022 92.3411 239.431C91.7142 238.84 91.3823 238.028 91.3823 237.068C91.3823 235.96 91.7511 234.926 92.5255 234.039V233.965ZM104.031 198.215C105.359 196.073 107.129 194.374 109.378 193.081C111.628 191.789 114.025 191.161 116.717 191.161C119.04 191.161 121.216 191.715 123.281 192.86C125.309 194.005 126.969 195.593 128.186 197.624C129.403 199.655 130.03 201.945 130.03 204.383C130.03 207.079 129.366 209.516 128.038 211.732C126.711 213.948 124.941 215.721 122.691 217.014C120.442 218.306 118.082 218.971 115.574 218.971C113.251 218.971 111.038 218.38 108.973 217.161C106.908 215.943 105.211 214.317 103.957 212.249C102.704 210.181 102.04 207.854 102.04 205.306C102.04 202.758 102.704 200.32 104.031 198.178V198.215ZM110.042 285.043C108.493 283.75 107.571 281.276 107.313 277.693C107.018 274.591 106.908 271.673 106.908 268.903L107.129 263.179C107.203 261.332 107.461 259.744 107.866 258.415C108.235 257.343 108.862 256.531 109.784 255.977C110.706 255.423 112.181 255.017 114.209 254.832C116.68 254.537 120.036 254.389 124.351 254.389C130.14 254.389 133.976 254.611 135.856 255.017C137.184 255.312 138.18 256.014 138.807 257.122C139.433 258.23 139.839 259.781 140.024 261.665C140.208 263.585 140.282 266.392 140.282 270.122C140.282 276.031 139.913 279.946 139.212 281.866C138.733 283.27 137.885 284.378 136.668 285.153C135.488 285.855 133.828 286.335 131.689 286.52C129.587 286.742 126.637 286.852 122.802 286.852L117.823 286.963C114.173 286.963 111.554 286.298 110.005 285.006L110.042 285.043ZM112.071 209.11C112.845 210.144 113.841 210.661 115.021 210.661C116.717 210.661 118.192 210.033 119.52 208.815C120.81 207.596 121.474 206.155 121.474 204.53C121.474 203.053 121.069 201.834 120.22 200.948C119.372 200.025 118.229 199.582 116.828 199.582C115.279 199.582 113.914 200.209 112.697 201.502C111.517 202.758 110.89 204.161 110.89 205.638C110.89 206.968 111.259 208.15 112.034 209.184L112.071 209.11ZM116.754 276.844C117.418 277.841 118.598 278.321 120.294 278.321H126.416C128.333 278.321 129.587 277.952 130.288 277.213C130.952 276.474 131.284 275.034 131.284 272.929V268.497C131.284 266.946 131.099 265.727 130.767 264.804C130.399 264.028 129.624 263.474 128.444 263.105C127.375 262.809 125.641 262.699 123.171 262.699C120.552 262.699 118.856 262.846 118.082 263.105C117.233 263.4 116.643 264.213 116.275 265.542C115.906 266.946 115.758 269.051 115.758 271.784C115.758 274.185 116.09 275.883 116.754 276.881V276.844Z" fill="#666666"/>
<path d="M175.536 256.309C173.361 255.054 171.627 253.355 170.3 251.287C169.009 249.218 168.345 246.966 168.345 244.565C168.345 239.616 169.857 235.554 172.844 232.34C175.831 229.127 179.667 227.539 184.313 227.539C186.931 227.539 189.365 228.167 191.652 229.46C193.938 230.715 195.782 232.414 197.146 234.482C198.511 236.551 199.212 238.804 199.212 241.204C199.212 244.38 198.511 247.261 197.146 249.883C195.782 252.505 193.827 254.537 191.32 256.014C188.812 257.491 185.936 258.23 182.727 258.23C180.109 258.23 177.712 257.602 175.536 256.309ZM179.335 247.224C180.183 248.369 181.215 248.923 182.395 248.923C184.35 248.923 186.046 248.258 187.411 246.966C188.775 245.673 189.476 244.011 189.476 242.054C189.476 240.576 188.923 239.358 187.78 238.397C186.636 237.437 185.235 236.957 183.539 236.957C181.842 236.957 180.515 237.548 179.519 238.693C178.523 239.875 178.044 241.389 178.044 243.309C178.044 244.787 178.45 246.079 179.298 247.224H179.335ZM202.936 221.741C203.895 220.965 205.149 220.559 206.698 220.559H208.505L212.008 220.891C216.028 220.891 218.72 220.744 220.158 220.485L219.015 216.164C218.535 214.687 218.277 213.505 218.277 212.692C218.277 211.437 218.72 210.366 219.642 209.479C220.564 208.593 221.633 208.15 222.924 208.15C224.214 208.15 225.321 208.556 226.316 209.369C227.312 210.181 227.976 211.215 228.308 212.471C231.553 225.508 233.176 239.542 233.176 254.574C233.176 255.829 232.77 256.974 231.922 258.008C231.074 259.042 230.004 259.559 228.75 259.559C227.201 259.559 226.095 259.227 225.468 258.488C224.915 257.934 224.546 257.307 224.399 256.679C224.177 255.682 224.03 254.13 223.993 252.025C222.039 252.432 219.973 252.653 217.871 252.653C214.626 252.653 212.192 252.247 210.533 251.434C208.873 250.622 208.062 249.255 208.062 247.372C208.062 245.821 208.505 244.639 209.39 243.826C210.275 243.014 211.492 242.608 213.041 242.608L215.769 242.829C216.765 243.051 217.687 243.162 218.498 243.162C220.269 243.162 221.928 242.94 223.477 242.534C223.108 238.36 222.629 234.039 222.002 229.534C218.425 230.161 214.7 230.494 210.902 230.494C207.583 230.494 205.223 230.124 203.784 229.386C202.346 228.647 201.609 227.207 201.609 225.102C201.609 223.698 202.088 222.59 203.047 221.815L202.936 221.741ZM241.03 237.4C241.03 231.75 240.367 226.21 239.039 220.781L238.818 218.86C238.818 217.531 239.187 216.423 239.961 215.573C240.735 214.724 241.768 214.318 243.022 214.318C244.276 214.318 245.419 214.724 246.451 215.536C247.484 216.349 248.185 217.383 248.627 218.639C249.623 221.962 250.102 227.576 250.102 235.443C250.102 243.309 249.402 249.994 248 255.238C247.226 257.861 245.714 259.153 243.464 259.153C242.137 259.153 241.03 258.784 240.145 258.045C239.26 257.307 238.818 256.236 238.818 254.832L239.039 253.466C240.367 248.037 241.03 242.681 241.03 237.4Z" fill="#666666"/>
<path d="M285.615 255.275L285.394 254.647C285.394 254.647 285.283 254.315 285.283 253.909C285.283 252.653 285.873 251.619 287.016 250.843C288.16 250.068 289.524 249.699 291.073 249.699C292.622 249.699 293.912 250.474 294.982 252.025C296.051 253.576 296.605 255.128 296.678 256.679L296.9 265.986C305.64 264.804 312.941 263.363 318.878 261.738L320.354 261.517C321.607 261.517 322.714 261.997 323.636 262.957C324.558 263.917 325 265.025 325 266.281C325 268.275 323.857 269.679 321.607 270.528C316.113 272.449 309.069 273.926 300.44 274.96C291.81 276.031 283.034 276.548 274.072 276.548C269.5 276.548 265.886 276.142 263.194 275.293C260.575 274.443 259.285 272.855 259.285 270.528C259.285 269.273 259.727 268.165 260.612 267.241C261.497 266.318 262.567 265.875 263.821 265.875L264.669 265.986C268.91 266.687 273.814 267.057 279.457 267.057L286.648 266.835V266.096L286.758 264.508C286.758 261.037 286.39 257.971 285.615 255.312V255.275ZM273.04 208.187C273.962 207.411 275.179 207.005 276.728 207.005C278.572 207.005 279.788 207.781 280.415 209.332C281.042 210.883 281.374 213.468 281.374 217.05V219.156L299.333 218.934C299.333 217.531 299.223 216.09 299.002 214.613L298.78 210.477C298.78 207.707 300.182 206.34 303.021 206.34C304.275 206.34 305.381 206.636 306.303 207.19C307.225 207.744 307.778 208.556 308 209.627C308.405 212.028 308.627 215.204 308.627 219.156V224.031C308.627 228.352 308.516 231.602 308.295 233.855C308 237.733 307.151 240.576 305.75 242.423C304.496 244.122 302.837 245.23 300.845 245.747C298.854 246.264 295.535 246.522 290.962 246.522C286.39 246.522 283.181 246.375 280.932 246.116C278.055 245.747 275.916 244.491 274.589 242.312C273.261 240.133 272.524 236.994 272.376 232.894L271.749 211.511C271.675 210.033 272.118 208.888 273.003 208.113L273.04 208.187ZM281.595 231.048C281.595 233.153 281.669 234.852 281.817 236.144C281.964 236.994 282.665 237.585 283.919 237.954C285.32 238.323 287.275 238.471 289.745 238.471L293.249 238.582C295.351 238.582 296.9 238.25 297.858 237.511C298.817 236.809 299.297 235.554 299.297 233.818V227.244L281.559 227.576C281.632 227.945 281.669 229.09 281.669 231.085L281.595 231.048Z" fill="#666666"/>
<path d="M185.309 59.1284C180.994 56.4324 177.564 52.85 174.983 48.3812C172.402 43.9493 171.111 39.4066 171.111 34.827C171.111 28.0315 172.586 21.9746 175.573 16.6933C178.56 11.412 182.653 7.31257 187.853 4.39493C193.053 1.47729 198.843 0 205.259 0C213.594 0 220.49 2.58525 225.984 7.71883C231.479 12.8524 234.208 19.5371 234.208 27.7361C234.208 33.9776 232.622 39.8498 229.414 45.2419C226.206 50.671 222.002 55.0289 216.691 58.279C211.418 61.5659 205.665 63.191 199.396 63.191C194.27 63.191 189.55 61.8245 185.235 59.1284H185.309Z" fill="#FF7B6F"/>
<path d="M89.5752 156.334C85.2606 153.638 81.831 150.055 79.2496 145.587C76.6681 141.155 75.3774 136.612 75.3774 132.033C75.3774 125.237 76.8525 119.18 79.8396 113.899C82.8267 108.618 86.92 104.518 92.1198 101.6C97.3195 98.6828 103.109 97.2055 109.526 97.2055C117.86 97.2055 124.756 99.7908 130.251 104.924C135.746 110.058 138.475 116.743 138.475 124.942C138.475 131.183 136.889 137.055 133.681 142.447C130.472 147.876 126.268 152.234 120.958 155.484C115.684 158.771 109.932 160.396 103.662 160.396C98.5364 160.396 93.8161 159.03 89.5015 156.334H89.5752Z" fill="#FFD340"/>
<path d="M134.639 3.3239C137.737 4.72733 139.839 7.53417 141.019 11.7814C142.162 16.0286 142.752 22.5656 142.752 31.3554C142.752 43.8754 142.052 52.5914 140.687 57.5403C139.765 60.9381 137.958 63.4495 135.266 65.0745C132.574 66.6995 128.923 67.7336 124.387 68.2137C119.851 68.6569 113.324 68.9155 104.842 68.9155C99.6057 68.9155 94.2585 68.6939 88.8744 68.2137C84.4123 67.7336 81.0933 66.8842 78.9175 65.6654C76.7418 64.4467 75.2298 62.6001 74.3079 60.1995C73.3859 57.7989 72.6853 54.2165 72.2427 49.4153C71.6158 44.3186 71.3208 35.7504 71.3208 23.6735C71.3208 18.7246 71.6158 15.0314 72.2427 12.557C73.4597 6.537 78.3275 3.13924 86.8093 2.36367C91.2714 1.88355 98.0569 1.66196 107.166 1.66196H119.446C126.858 1.66196 131.947 2.21594 134.713 3.28697L134.639 3.3239ZM106.17 18.8354C100.786 18.8354 96.9874 19.057 94.8117 19.5371C92.8203 20.165 91.5296 21.4207 90.9764 23.3781C90.4233 25.2986 90.1651 28.9179 90.1651 34.1623C90.1651 40.1822 90.2389 43.6538 90.3864 44.5772C90.6814 48.6028 93.8529 50.5971 99.8639 50.5971H114.209C118.524 50.5971 121.29 49.7846 122.543 48.1596C123.76 46.5346 124.387 43.0999 124.387 37.8555C124.387 31.2077 124.756 26.4065 123.908 23.7105C122.396 18.7246 106.096 18.8354 106.096 18.8354H106.17Z" fill="#3DC8EF"/>
<path d="M220.416 104.85C220.047 102.117 219.9 99.5322 219.9 97.0578C219.9 92.5521 222.186 90.3361 226.796 90.3361C228.677 90.3361 230.41 90.8532 231.922 91.8503C233.471 92.8475 234.393 94.1771 234.761 95.839C235.462 99.3845 235.831 104.186 235.831 110.206V117.297C235.831 124.498 235.646 131.663 235.315 138.754C234.946 145.143 233.434 149.871 230.705 152.936C227.976 155.78 224.768 157.59 221.043 158.439C217.318 159.252 211.639 159.695 203.969 159.695C196.888 159.695 190.435 159.104 184.682 157.922C179.74 156.851 176.2 154.561 174.135 151.016C172.07 147.47 170.964 142.558 170.853 136.317C170.853 132.882 170.779 130.297 170.669 128.524L170.3 120.916C169.82 113.456 169.599 107.251 169.599 102.302C169.599 99.8277 170.3 97.9442 171.738 96.7254C173.139 95.4697 175.094 94.8788 177.565 94.8788C179.335 94.8788 180.884 95.5066 182.248 96.7254C183.612 97.9811 184.276 99.4584 184.276 101.231L184.645 108.507L185.014 113.308L220.785 112.791L220.416 104.998V104.85ZM185.715 135.172C185.715 138.016 186.194 140.195 187.116 141.746C188.075 143.297 189.697 144.331 192.057 144.922C195.487 145.624 199.654 145.993 204.633 145.993H210.828C213.668 145.993 215.88 145.18 217.466 143.518C219.052 141.857 219.9 140.379 220.047 139.087L220.564 126.862L185.493 127.379C185.604 128.561 185.678 131.146 185.678 135.172H185.715Z" fill="#666666"/>
</g>
<defs>
<clipPath id="clip0_1365_2532">
<rect width="325" height="287" fill="white"/>
</clipPath>
</defs>
</svg>
