<svg width="128" height="139" viewBox="0 0 128 139" fill="none" xmlns="http://www.w3.org/2000/svg">
<path d="M65.7238 5.65477C52.9581 2.89665 53.4414 -2.04877 43.5753 0.91559C33.7092 3.87995 34.2242 11.4587 24.0735 16.6491C15.1312 21.2215 11.992 20.893 4.25978 29.5258C0.724974 33.4724 -2.50593 46.86 2.80998 51.8126C14.7611 62.9469 19.2539 57.7397 29.1966 62.4949C43.6945 69.4285 50.7487 71.6372 66.8911 70.9143C83.2903 70.1798 87.8065 62.5351 104.102 60.5138C113.096 59.3983 115.002 61.8322 121.782 55.676C128.1 49.9403 129.991 41.3015 125.648 33.8846C118.399 21.503 108.9 29.4424 105.351 18.5315C103.418 12.5884 96.8669 6.71519 87.9539 2.6832C79.1825 -1.28474 71.1153 6.81965 65.7238 5.65477Z" fill="#999999"/>
<path d="M53.3922 44.0174C52.9783 44.1715 52.6726 44.2588 52.2863 44.0174C52.0131 43.8466 51.8869 43.6717 51.7333 43.3261C51.4711 42.7361 51.4568 42.2891 51.7333 41.5978C52.2796 40.2319 54.4982 39.1783 54.4982 39.1783C54.4982 39.1783 55.3407 38.8326 55.8806 38.8326C56.4205 38.8326 57.2631 39.1783 57.2631 39.1783C57.2631 39.1783 59.4816 40.2319 60.0279 41.5978C60.3044 42.2891 60.2901 42.7361 60.0279 43.3261C59.8796 43.6598 59.7419 43.8319 59.475 44.0174C59.003 44.3451 58.5917 44.2743 58.0925 44.0173C57.2876 43.603 57.2564 42.9903 56.4336 42.6348C56.0254 42.4584 55.7416 42.4806 55.3276 42.6348C54.4375 42.9662 54.2824 43.6859 53.3922 44.0174Z" fill="black"/>
<circle cx="45.5315" cy="31.0699" r="2.04764" fill="black"/>
<circle cx="66.3596" cy="29.7981" r="2.04763" fill="black"/>
<path d="M44.5377 39.1876C44.703 37.8356 45.3642 36.6525 45.3642 36.6525C45.3642 36.6525 46.356 38.0046 46.5213 39.0186C46.7409 40.3659 46.041 40.7477 45.6476 40.7477C45.1517 40.7477 44.3737 40.5293 44.5377 39.1876Z" fill="#3DC8EF"/>
<path d="M66.7721 43.0028C66.9374 41.6507 67.5986 40.4677 67.5986 40.4677C67.5986 40.4677 68.5904 41.8198 68.7557 42.8338C68.9753 44.1811 68.2754 44.5629 67.8819 44.5629C67.386 44.5629 66.608 44.3445 66.7721 43.0028Z" fill="#3DC8EF"/>
<path d="M26.7709 97.178C26.2475 94.7858 26.3841 92.5108 26.3841 92.5108C26.3841 92.5108 28.2391 94.4959 28.9645 96.1883C29.9283 98.4367 29.3244 99.3422 28.8716 99.4806C28.3009 99.6551 27.2902 99.5517 26.7709 97.178Z" fill="#3DC8EF"/>
<path d="M114.769 83.6279C113.843 81.1321 113.646 78.6627 113.646 78.6627C113.646 78.6627 115.943 80.5188 116.98 82.2308C118.358 84.5051 117.844 85.571 117.378 85.7886C116.79 86.0627 115.687 86.1044 114.769 83.6279Z" fill="#3DC8EF"/>
<path d="M84.5521 94.6378C83.8695 91.5175 84.0476 88.5502 84.0476 88.5502C84.0476 88.5502 86.4671 91.1394 87.4134 93.3469C88.6705 96.2796 87.8828 97.4606 87.2921 97.6412C86.5477 97.8688 85.2295 97.734 84.5521 94.6378Z" fill="#3DC8EF"/>
<path d="M70.4402 135.38C69.8417 132.645 69.9979 130.044 69.9979 130.044C69.9979 130.044 72.119 132.314 72.9485 134.249C74.0506 136.82 73.36 137.855 72.8422 138.013C72.1897 138.213 71.034 138.095 70.4402 135.38Z" fill="#3DC8EF"/>
<path d="M11.0666 84.2691C10.4219 81.3222 10.5901 78.5197 10.5901 78.5197C10.5901 78.5197 12.8752 80.9651 13.7689 83.0499C14.9561 85.8197 14.2122 86.9351 13.6544 87.1057C12.9513 87.3206 11.7063 87.1933 11.0666 84.2691Z" fill="#3DC8EF"/>
<path d="M52.3697 106.244C51.714 103.247 51.885 100.397 51.885 100.397C51.885 100.397 54.2092 102.884 55.1181 105.004C56.3256 107.821 55.569 108.956 55.0016 109.129C54.2866 109.348 53.0203 109.218 52.3697 106.244Z" fill="#3DC8EF"/>
<path d="M35.4621 123.566C34.8818 120.913 35.0332 118.391 35.0332 118.391C35.0332 118.391 37.0899 120.592 37.8941 122.468C38.9627 124.961 38.2931 125.965 37.7911 126.118C37.1583 126.312 36.0379 126.197 35.4621 123.566Z" fill="#3DC8EF"/>
<path d="M107.414 115.974C106.8 113.166 106.96 110.495 106.96 110.495C106.96 110.495 109.138 112.825 109.989 114.812C111.121 117.452 110.412 118.515 109.88 118.677C109.21 118.882 108.024 118.761 107.414 115.974Z" fill="#3DC8EF"/>
<path d="M79.1949 117.753C78.6032 115.049 78.7576 112.477 78.7576 112.477C78.7576 112.477 80.8545 114.721 81.6746 116.634C82.7641 119.176 82.0814 120.199 81.5695 120.356C80.9244 120.553 79.7819 120.436 79.1949 117.753Z" fill="#3DC8EF"/>
</svg>
