<svg width="128" height="120" viewBox="0 0 128 120" fill="none" xmlns="http://www.w3.org/2000/svg">
<path d="M108.314 64.3728C109.658 41.6471 94.2822 18.7388 66.1334 17.6471C40.2377 16.6428 20.7332 36.7059 19.8456 60.1337C18.9579 83.5614 41.6072 103.73 65.718 102.949C87.8108 102.234 106.969 87.0985 108.314 64.3728Z" fill="#FF5444"/>
<path d="M59.2186 63.4653C58.4823 63.2375 57.9385 63.1084 57.2513 63.4653C56.7654 63.7177 56.5408 63.9762 56.2676 64.4871C55.8012 65.3592 55.7758 66.0199 56.2676 67.0417C57.2394 69.0608 61.186 70.6181 61.186 70.6181C61.186 70.6181 62.6848 71.129 63.6452 71.129C64.6056 71.129 66.1044 70.6181 66.1044 70.6181C66.1044 70.6181 70.0508 69.0607 71.0227 67.0417C71.5146 66.0199 71.4891 65.3592 71.0227 64.4872C70.7589 63.9938 70.5139 63.7394 70.039 63.4653C69.1995 62.9808 68.4679 63.0855 67.5798 63.4653C66.1479 64.0778 66.0924 64.9834 64.6288 65.509C63.9027 65.7697 63.3978 65.7368 62.6615 65.509C61.078 65.019 60.8022 63.9553 59.2186 63.4653Z" fill="black"/>
<circle cx="53.9051" cy="61.4109" r="2.41094" fill="black"/>
<circle cx="73.6775" cy="61.4109" r="2.41094" fill="black"/>
<path d="M61.9473 1.28927C61.9473 0.577226 62.5245 0 63.2365 0V0C63.9486 0 64.5258 0.577226 64.5258 1.28927V7.58741C64.5258 8.29945 63.9486 8.87668 63.2365 8.87668V8.87668C62.5245 8.87668 61.9473 8.29945 61.9473 7.58741V1.28927Z" fill="#FF5444"/>
<path d="M99.5111 12.153C99.8251 11.5914 100.528 11.4033 101.08 11.7327V11.7327C101.633 12.0622 101.826 12.7845 101.512 13.346L98.4125 18.8898C98.0985 19.4513 97.396 19.6395 96.8434 19.31V19.31C96.2908 18.9806 96.0974 18.2583 96.4114 17.6968L99.5111 12.153Z" fill="#FF5444"/>
<path d="M116.807 33.8557C117.368 33.5209 118.082 33.7121 118.401 34.2828V34.2828C118.721 34.8535 118.524 35.5875 117.962 35.9224L112.658 39.0848C112.096 39.4197 111.382 39.2284 111.063 38.6578V38.6578C110.744 38.0871 110.94 37.353 111.502 37.0182L116.807 33.8557Z" fill="#FF5444"/>
<path d="M126.827 65.1799C127.475 65.2978 127.91 65.9195 127.799 66.5685V66.5685C127.689 67.2174 127.074 67.6479 126.426 67.53L120.426 66.4376C119.779 66.3197 119.343 65.698 119.454 65.0491V65.0491C119.565 64.4001 120.18 63.9696 120.828 64.0876L126.827 65.1799Z" fill="#FF5444"/>
<path d="M113.787 94.5922C114.238 95.0581 114.238 95.8135 113.787 96.2794V96.2794C113.335 96.7453 112.604 96.7453 112.152 96.2794L107.795 91.7801C107.344 91.3142 107.344 90.5588 107.795 90.0928V90.0928C108.246 89.6269 108.978 89.6269 109.429 90.0928L113.787 94.5922Z" fill="#FF5444"/>
<path d="M90.4655 112.947C90.6261 113.566 91.256 113.93 91.8723 113.759V113.759C92.4886 113.588 92.8581 112.948 92.6974 112.329L91.086 106.119C90.9253 105.5 90.2955 105.137 89.6792 105.307V105.307C89.0628 105.478 88.6934 106.118 88.854 106.737L90.4655 112.947Z" fill="#FF5444"/>
<path d="M25.2077 108.574C24.8457 109.108 24.976 109.847 25.4987 110.225V110.225C26.0214 110.603 26.7386 110.477 27.1006 109.943L30.6498 104.709C31.0118 104.175 30.8815 103.436 30.3588 103.058V103.058C29.8361 102.68 29.1189 102.807 28.7569 103.34L25.2077 108.574Z" fill="#FF5444"/>
<path d="M63.9595 118.711C63.9595 119.423 63.3822 120 62.6702 120V120C61.9582 120 61.3809 119.423 61.3809 118.711L61.3809 112.413C61.3809 111.701 61.9582 111.123 62.6702 111.123V111.123C63.3822 111.123 63.9595 111.701 63.9595 112.413L63.9595 118.711Z" fill="#FF5444"/>
<path d="M7.97212 88.3255C7.44359 88.7077 7.31187 89.455 7.67792 89.9948V89.9948C8.04396 90.5346 8.76915 90.6624 9.29767 90.2803L14.3251 86.6454C14.8536 86.2633 14.9853 85.5159 14.6193 84.9761V84.9761C14.2532 84.4363 13.528 84.3085 12.9995 84.6907L7.97212 88.3255Z" fill="#FF5444"/>
<path d="M8.04154 39.7926C7.42694 39.5616 6.75177 39.8764 6.5335 40.4956V40.4956C6.31523 41.1148 6.63652 41.8041 7.25112 42.035L12.9882 44.1912C13.6028 44.4222 14.278 44.1075 14.4963 43.4882V43.4882C14.7145 42.869 14.3933 42.1798 13.7787 41.9488L8.04154 39.7926Z" fill="#FF5444"/>
<path d="M1.18604 64.3505C0.531008 64.3932 0.0464695 64.958 0.103793 65.6119V65.6119C0.161116 66.2658 0.738593 66.7613 1.39362 66.7185L7.51225 66.3193C8.16728 66.2766 8.65182 65.7118 8.59449 65.0579V65.0579C8.53717 64.404 7.95969 63.9085 7.30466 63.9513L1.18604 64.3505Z" fill="#FF5444"/>
<path d="M22.7062 15.2581C22.2549 14.7921 22.2549 14.0367 22.7062 13.5708V13.5708C23.1574 13.1049 23.889 13.1049 24.3402 13.5708L28.6976 18.0701C29.1488 18.536 29.1488 19.2915 28.6976 19.7574V19.7574C28.2463 20.2233 27.5148 20.2233 27.0635 19.7574L22.7062 15.2581Z" fill="#FF5444"/>
</svg>
