<svg width="142" height="125" viewBox="0 0 142 125" fill="none" xmlns="http://www.w3.org/2000/svg">
<path d="M74.4575 70.3659C42.3511 94.1089 14.499 82.9788 14.499 82.9788C14.499 82.9788 18.5923 97.0606 46.8973 109.743C52.8564 112.413 81.1616 114.219 95.5505 104.276C117.867 88.8535 127.309 56.486 114.126 30.1435C104.091 10.0925 84.0216 6.23651 84.0216 6.23651C84.0216 6.23651 104.863 47.8808 74.4575 70.3659Z" fill="#FFE877"/>
<path d="M98.1259 70.0898C96.5469 69.6667 94.2868 69.6011 93.8954 68.9562C93.504 68.3113 93.794 67.3089 94.7705 66.8495C95.8527 66.3405 98.9465 66.8703 101.222 68.038C101.959 68.4166 102.768 68.6613 103.114 69.475C103.405 70.1585 102.825 71.2043 102.048 71.3495C101.27 71.4947 99.0866 70.3472 98.1259 70.0898Z" fill="black"/>
<circle cx="95.3041" cy="58.3535" r="2.74164" fill="black"/>
<circle cx="106.117" cy="59.4023" r="2.74164" fill="black"/>
<path d="M60.2793 75.9502C51.5471 74.2961 51.8777 71.3303 45.1289 73.1081C38.3801 74.8858 38.7324 79.431 31.789 82.5437C25.6721 85.2859 23.5248 85.0889 18.2356 90.2662C15.8177 92.633 13.6076 100.662 17.2439 103.632C25.4189 110.309 28.4922 107.187 35.2934 110.038C45.2105 114.197 50.0358 115.521 61.0778 115.088C72.2954 114.647 75.3847 110.062 86.5317 108.85C92.6834 108.181 93.9872 109.641 98.6254 105.949C102.947 102.509 104.24 97.3283 101.27 92.8802C96.3114 85.4548 89.8136 90.2161 87.386 83.6727C86.0638 80.1085 81.5824 76.5862 75.4855 74.1681C69.4855 71.7885 63.9673 76.6488 60.2793 75.9502Z" fill="#FFF5E8"/>
<path d="M102.919 78.7129C94.9076 77.216 95.2109 74.5318 89.0195 76.1407C82.828 77.7496 83.1512 81.863 76.7811 84.6801C71.1694 87.1618 69.1994 86.9835 64.347 91.669C62.1288 93.811 60.1012 101.077 63.4372 103.765C70.9371 109.808 73.7566 106.982 79.9961 109.563C89.0943 113.326 93.5211 114.525 103.651 114.133C113.943 113.734 116.777 109.585 127.003 108.488C132.647 107.882 133.843 109.203 138.098 105.862C142.063 102.749 143.249 98.0603 140.524 94.0347C135.975 87.3146 130.014 91.6237 127.787 85.7018C126.574 82.4762 122.463 79.2885 116.869 77.1001C111.365 74.9465 106.302 79.3452 102.919 78.7129Z" fill="#FFF5E8"/>
</svg>
